<svg xmlns="http://www.w3.org/2000/svg" width="292.637" height="35.899" viewBox="0 0 292.637 35.899">
  <g id="Wittenbach_logo" data-name="Wittenbach logo" transform="translate(146.319 17.95)">
    <g id="Group_6" data-name="Group 6" transform="translate(-146.319 -17.95)">
      <path id="Path_43" data-name="Path 43" d="M7.208,14.466l4.026,14.223h.23L15.8,14.466h4.947l4.294,14.223h.23l4.026-14.223H36.31L28.3,39.1H22.2L18.25,26.274h-.23L14.11,39.1H7.975L0,14.466Z" transform="translate(0 -3.957)" fill="#002d53"/>
      <path id="Path_44" data-name="Path 44" d="M61.739,0a3.456,3.456,0,0,1,3.642,3.207,3.4,3.4,0,0,1-3.642,3.13,3.326,3.326,0,0,1-3.566-3.13A3.385,3.385,0,0,1,61.739,0Z" transform="translate(-15.911 0)" fill="#002d53"/>
      <rect id="Rectangle_9" data-name="Rectangle 9" width="6.288" height="24.596" transform="translate(42.722 10.549)" fill="#002d53"/>
      <path id="Path_45" data-name="Path 45" d="M77.012,14.466h23.236v5.546H92V39.1H85.294V20.012H77.012Z" transform="translate(-21.063 -3.957)" fill="#002d53"/>
      <path id="Path_46" data-name="Path 46" d="M115.973,14.466h23.236v5.546h-8.244V39.1h-6.71V20.012h-8.282Z" transform="translate(-31.719 -3.957)" fill="#002d53"/>
      <path id="Path_47" data-name="Path 47" d="M172.451,29.216h-8.818v4.339h15.528V39.1H156.923V14.466h21.4v5.546H163.634V23.9h8.818Z" transform="translate(-42.919 -3.957)" fill="#002d53"/>
      <path id="Path_48" data-name="Path 48" d="M221.543,14.466V39.1h-5.674L204.826,25.708h-.039V39.1h-6.748V14.466h5.637L214.756,27.9h.038V14.466Z" transform="translate(-54.164 -3.957)" fill="#002d53"/>
      <path id="Path_49" data-name="Path 49" d="M243.336,39.1V14.466h14.877c3.335,0,5.828.943,7.362,2.565a5.19,5.19,0,0,1,1.5,3.546,5.836,5.836,0,0,1-3.106,4.829c2.875,1.321,4.371,3.319,4.371,6.036A7.371,7.371,0,0,1,266,36.761c-1.84,1.7-3.988,2.339-7.209,2.339Zm6.748-19.466v4.376h7.285a2.962,2.962,0,0,0,2.185-.679,2.088,2.088,0,0,0,.614-1.51,2,2,0,0,0-.614-1.471,2.74,2.74,0,0,0-2.185-.717Zm0,9.13v5.168h8.167a3.356,3.356,0,0,0,2.416-.754,2.57,2.57,0,0,0,0-3.585,3.089,3.089,0,0,0-2.416-.83Z" transform="translate(-66.553 -3.957)" fill="#002d53"/>
      <path id="Path_50" data-name="Path 50" d="M281.262,39.1l11.617-24.635h5.56L310.056,39.1h-7.323l-1.61-3.773h-11.2L288.356,39.1Zm10.812-8.9h6.9l-3.337-7.885h-.229Z" transform="translate(-76.926 -3.957)" fill="#002d53"/>
      <path id="Path_51" data-name="Path 51" d="M351.735,34.554a20,20,0,0,1-13.075,5.017c-8.4,0-13.956-5.885-13.956-13.091,0-7.054,5.6-13.053,13.764-13.053a21.233,21.233,0,0,1,12.5,4.225l-4.026,4.3a13.2,13.2,0,0,0-7.63-2.981,7.362,7.362,0,0,0-7.631,7.545,7.456,7.456,0,0,0,7.822,7.545c2.914,0,5.944-1.7,8.167-3.734Z" transform="translate(-88.808 -3.672)" fill="#002d53"/>
      <path id="Path_52" data-name="Path 52" d="M370.454,39.1V14.466H377.2v8.9h10.046v-8.9h6.709V39.1h-6.709V28.726H377.2V39.1Z" transform="translate(-101.321 -3.957)" fill="#002d53"/>
    </g>
  </g>
</svg>
