<svg xmlns="http://www.w3.org/2000/svg" width="536.818" height="66.708" viewBox="0 0 536.818 66.708">
  <g id="Group_36" data-name="Group 36" transform="translate(0.687 0.5)">
    <path id="Path_172" data-name="Path 172" d="M13.192,14.466,20.562,40.5h.422l7.929-26.032h9.054L45.827,40.5h.422l7.368-26.032H66.46L51.792,59.556H40.634L33.4,36.078h-.42L25.826,59.556H14.6L0,14.466Z" transform="translate(0 4.77)" fill="#fff" stroke="#707070" stroke-width="1"/>
    <path id="Path_173" data-name="Path 173" d="M64.7,0c3.719,0,6.666,2.694,6.666,5.871S68.419,11.6,64.7,11.6s-6.526-2.554-6.526-5.73S60.98,0,64.7,0Z" transform="translate(19.182)" fill="#fff" stroke="#707070" stroke-width="1"/>
    <rect id="Rectangle_21" data-name="Rectangle 21" width="11.51" height="45.019" transform="translate(78.197 19.308)" fill="#fff" stroke="#707070" stroke-width="1"/>
    <path id="Path_174" data-name="Path 174" d="M77.012,14.466h42.529V24.617H104.454V59.556H92.171V24.617H77.012Z" transform="translate(25.395 4.77)" fill="#fff" stroke="#707070" stroke-width="1"/>
    <path id="Path_175" data-name="Path 175" d="M115.973,14.466H158.5V24.617H143.414V59.556H131.132V24.617H115.973Z" transform="translate(38.242 4.77)" fill="#fff" stroke="#707070" stroke-width="1"/>
    <path id="Path_176" data-name="Path 176" d="M185.345,41.464H169.206v7.941h28.422V59.556h-40.7V14.466h39.161V24.617H169.206v7.111h16.139Z" transform="translate(51.745 4.77)" fill="#fff" stroke="#707070" stroke-width="1"/>
    <path id="Path_177" data-name="Path 177" d="M241.059,14.466v45.09H230.674L210.462,35.043h-.071V59.556H198.039V14.466h10.318l20.281,24.583h.069V14.466Z" transform="translate(65.303 4.77)" fill="#fff" stroke="#707070" stroke-width="1"/>
    <path id="Path_178" data-name="Path 178" d="M243.336,59.556V14.466h27.231c6.1,0,10.667,1.726,13.474,4.7a9.5,9.5,0,0,1,2.737,6.491c0,3.523-2.246,6.768-5.685,8.839,5.263,2.417,8,6.076,8,11.048a13.492,13.492,0,0,1-4.281,9.736c-3.368,3.109-7.3,4.282-13.2,4.282Zm12.352-35.631v8.01h13.335a5.421,5.421,0,0,0,4-1.242,3.822,3.822,0,0,0,1.124-2.763,3.659,3.659,0,0,0-1.124-2.693c-.77-.761-1.753-1.312-4-1.312Zm0,16.711V50.1h14.948a6.144,6.144,0,0,0,4.423-1.38,4.7,4.7,0,0,0,0-6.561,5.655,5.655,0,0,0-4.423-1.519Z" transform="translate(80.24 4.77)" fill="#fff" stroke="#707070" stroke-width="1"/>
    <path id="Path_179" data-name="Path 179" d="M281.262,59.556l21.263-45.09H312.7l21.264,45.09h-13.4l-2.947-6.905H297.122l-2.876,6.905Zm19.789-16.3h12.634l-6.108-14.432h-.419Z" transform="translate(92.746 4.77)" fill="#fff" stroke="#707070" stroke-width="1"/>
    <path id="Path_180" data-name="Path 180" d="M374.18,52.1a36.6,36.6,0,0,1-23.931,9.183c-15.369,0-25.545-10.772-25.545-23.962,0-12.912,10.246-23.892,25.193-23.892a38.863,38.863,0,0,1,22.88,7.734l-7.37,7.872c-4.282-3.452-9.825-5.456-13.965-5.456a13.475,13.475,0,0,0-13.968,13.811c0,7.528,5.614,13.811,14.317,13.811,5.334,0,10.879-3.108,14.949-6.835Z" transform="translate(107.071 4.428)" fill="#fff" stroke="#707070" stroke-width="1"/>
    <path id="Path_181" data-name="Path 181" d="M370.454,59.556V14.466h12.352v16.3h18.388v-16.3h12.28v45.09h-12.28V40.566H382.806v18.99Z" transform="translate(122.157 4.77)" fill="#fff" stroke="#707070" stroke-width="1"/>
  </g>
</svg>
