<svg xmlns="http://www.w3.org/2000/svg" width="37.658" height="37.658" viewBox="0 0 37.658 37.658">
  <g id="Linkedin_2" data-name="Linkedin 2" transform="translate(18.829 18.829)">
    <g id="Linkedin_2-2" data-name="Linkedin 2" transform="translate(-18.829 -18.829)">
      <circle id="Ellipse_2" data-name="Ellipse 2" cx="18.829" cy="18.829" r="18.829" fill="#272727"/>
      <g id="Group_16" data-name="Group 16" transform="translate(7.963 6.862)">
        <g id="Group_15" data-name="Group 15">
          <path id="Path_71" data-name="Path 71" d="M72.049,61.6c.309-.347.564-.7.882-1a4.839,4.839,0,0,1,3.48-1.373A8.059,8.059,0,0,1,78.6,59.5a4.277,4.277,0,0,1,3.037,3.194,13.374,13.374,0,0,1,.4,3.66c0,2.6-.007,5.2,0,7.8,0,.244-.068.308-.308.306q-2.01-.017-4.02,0c-.236,0-.287-.071-.286-.294q.011-3.712,0-7.425a6.679,6.679,0,0,0-.215-1.843,2.073,2.073,0,0,0-2.279-1.615,2.491,2.491,0,0,0-2.618,2.487,9.285,9.285,0,0,0-.071,1.161c0,2.407,0,4.814.007,7.221,0,.24-.059.311-.3.309q-2.024-.018-4.049,0c-.216,0-.279-.057-.279-.276q.009-7.148,0-14.3c0-.236.077-.29.3-.289q1.923.014,3.845,0c.236,0,.3.074.292.3C72.041,60.464,72.049,61.034,72.049,61.6Z" transform="translate(-59.726 -52.205)" fill="#fff"/>
          <path id="Path_72" data-name="Path 72" d="M40.1,68.243c0,2.357,0,4.715.006,7.073,0,.262-.064.341-.336.338-1.339-.015-2.679-.011-4.018,0-.215,0-.279-.052-.279-.274q.01-7.16,0-14.32c0-.2.048-.268.257-.267,1.359.009,2.718.011,4.077,0,.261,0,.3.1.3.323Q40.093,64.678,40.1,68.243Z" transform="translate(-35.118 -53.399)" fill="#fff"/>
          <path id="Path_73" data-name="Path 73" d="M39.312,31.931a2.675,2.675,0,1,1-2.671-2.662A2.684,2.684,0,0,1,39.312,31.931Z" transform="translate(-33.961 -29.269)" fill="#fff"/>
        </g>
      </g>
    </g>
  </g>
</svg>
