<svg xmlns="http://www.w3.org/2000/svg" width="293.46" height="36" viewBox="0 0 293.46 36">
  <g id="Wittenbach_logo" data-name="Wittenbach logo" transform="translate(201.403 24.707)">
    <g id="Group_36" data-name="Group 36" transform="translate(-201.403 -24.707)">
      <path id="Path_172" data-name="Path 172" d="M7.228,14.466l4.038,14.263H11.5l4.344-14.263H20.8l4.306,14.263h.231l4.037-14.263h7.036l-8.036,24.7H22.263L18.3,26.307h-.23L14.15,39.17H8l-8-24.7Z" transform="translate(0 -3.927)" fill="#fff"/>
      <path id="Path_173" data-name="Path 173" d="M61.749,0A3.466,3.466,0,0,1,65.4,3.216a3.408,3.408,0,0,1-3.652,3.139,3.336,3.336,0,0,1-3.576-3.139A3.394,3.394,0,0,1,61.749,0Z" transform="translate(-15.792)" fill="#fff"/>
      <rect id="Rectangle_21" data-name="Rectangle 21" width="6.306" height="24.665" transform="translate(42.842 10.578)" fill="#fff"/>
      <path id="Path_174" data-name="Path 174" d="M77.012,14.466h23.3v5.562H92.047V39.17h-6.73V20.028H77.012Z" transform="translate(-20.906 -3.927)" fill="#fff"/>
      <path id="Path_175" data-name="Path 175" d="M115.973,14.466h23.3v5.562h-8.267V39.17h-6.729V20.028h-8.305Z" transform="translate(-31.482 -3.927)" fill="#fff"/>
      <path id="Path_176" data-name="Path 176" d="M172.495,29.258h-8.842v4.351h15.572V39.17h-22.3v-24.7h21.455v5.562H163.653v3.9h8.842Z" transform="translate(-42.599 -3.927)" fill="#fff"/>
      <path id="Path_177" data-name="Path 177" d="M221.609,14.466v24.7h-5.69L204.845,25.739h-.039V39.17h-6.767v-24.7h5.653L214.8,27.934h.038V14.466Z" transform="translate(-53.76 -3.927)" fill="#fff"/>
      <path id="Path_178" data-name="Path 178" d="M243.336,39.17v-24.7h14.919c3.345,0,5.844.946,7.382,2.572a5.2,5.2,0,0,1,1.5,3.556,5.852,5.852,0,0,1-3.115,4.843c2.884,1.324,4.384,3.329,4.384,6.053a7.392,7.392,0,0,1-2.345,5.334c-1.845,1.7-4,2.346-7.229,2.346ZM250.1,19.649v4.389h7.306a2.97,2.97,0,0,0,2.191-.68,2.094,2.094,0,0,0,.616-1.514,2,2,0,0,0-.616-1.475,2.748,2.748,0,0,0-2.191-.719Zm0,9.156v5.183h8.19a3.366,3.366,0,0,0,2.423-.756,2.577,2.577,0,0,0,0-3.595,3.1,3.1,0,0,0-2.423-.832Z" transform="translate(-66.056 -3.927)" fill="#fff"/>
      <path id="Path_179" data-name="Path 179" d="M281.262,39.17l11.649-24.7h5.575l11.65,24.7h-7.344l-1.614-3.783H289.951l-1.576,3.783ZM292.1,30.242h6.922l-3.346-7.907h-.229Z" transform="translate(-76.352 -3.927)" fill="#fff"/>
      <path id="Path_180" data-name="Path 180" d="M351.811,34.614A20.055,20.055,0,0,1,338.7,39.645c-8.42,0-14-5.9-14-13.128,0-7.074,5.613-13.09,13.8-13.09a21.292,21.292,0,0,1,12.535,4.237L347,21.977a13.242,13.242,0,0,0-7.651-2.989,7.382,7.382,0,0,0-7.653,7.567,7.477,7.477,0,0,0,7.844,7.567c2.922,0,5.96-1.7,8.19-3.745Z" transform="translate(-88.145 -3.645)" fill="#fff"/>
      <path id="Path_181" data-name="Path 181" d="M370.454,39.17v-24.7h6.767v8.928H387.3V14.466h6.728v24.7H387.3v-10.4H377.221v10.4Z" transform="translate(-100.564 -3.927)" fill="#fff"/>
    </g>
  </g>
</svg>
