 <svg width="25" height="25" viewBox="0 0 14 11" fill="none" xmlns="http://www.w3.org/2000/svg">
                                <path d="M0 1.43219C0.0354363 1.04239 0.248054 0.829773 0.637854 0.794337H11.2688C11.6586 0.829773 11.8712 1.04239 11.9066 1.43219C11.8712 1.82199 11.6586 2.03461 11.2688 2.07004H0.637854C0.248054 2.03461 0.0354363 1.82199 0 1.43219ZM1.70094 5.68455C1.73638 5.29475 1.949 5.08213 2.3388 5.0467H12.9697C13.3595 5.08213 13.5721 5.29475 13.6076 5.68455C13.5721 6.07435 13.3595 6.28697 12.9697 6.3224H2.3388C1.949 6.28697 1.73638 6.07435 1.70094 5.68455ZM11.9066 9.93691C11.8712 10.3267 11.6586 10.5393 11.2688 10.5748H0.637854C0.248054 10.5393 0.0354363 10.3267 0 9.93691C0.0354363 9.54711 0.248054 9.33449 0.637854 9.29906H11.2688C11.6586 9.33449 11.8712 9.54711 11.9066 9.93691Z" fill="white"></path>
                            </svg>