<svg xmlns="http://www.w3.org/2000/svg" width="37.658" height="37.658" viewBox="0 0 37.658 37.658">
  <g id="Youtube_2" data-name="Youtube 2" transform="translate(18.829 18.829)">
    <g id="Youtube_2-2" data-name="Youtube 2" transform="translate(-18.829 -18.829)">
      <circle id="Ellipse_3" data-name="Ellipse 3" cx="18.829" cy="18.829" r="18.829" fill="#272727"/>
      <path id="Path_76" data-name="Path 76" d="M51.35,45.575a3.144,3.144,0,0,0-2.219-2.22c-1.958-.524-9.808-.524-9.808-.524s-7.851,0-9.809.524a3.144,3.144,0,0,0-2.219,2.22,35.055,35.055,0,0,0,0,12.085,3.144,3.144,0,0,0,2.219,2.22c1.958.524,9.809.524,9.809.524s7.85,0,9.808-.524a3.144,3.144,0,0,0,2.219-2.22,35.055,35.055,0,0,0,0-12.085ZM36.811,55.384V47.852l6.522,3.766Z" transform="translate(-20.493 -32.789)" fill="#fff"/>
    </g>
  </g>
</svg>
